<?xml version="1.0" encoding="UTF-8" standalone="no"?>
<!-- Created with Inkscape (http://www.inkscape.org/) -->

<svg
   width="128"
   height="128"
   viewBox="0 0 33.866666 33.866667"
   version="1.1"
   id="svg5"
   inkscape:version="1.3.2 (091e20ef0f, 2023-11-25, custom)"
   sodipodi:docname="icon.svg"
   xmlns:inkscape="http://www.inkscape.org/namespaces/inkscape"
   xmlns:sodipodi="http://sodipodi.sourceforge.net/DTD/sodipodi-0.dtd"
   xmlns="http://www.w3.org/2000/svg"
   xmlns:svg="http://www.w3.org/2000/svg">
  <sodipodi:namedview
     id="namedview7"
     pagecolor="#505050"
     bordercolor="#eeeeee"
     borderopacity="1"
     inkscape:pageshadow="0"
     inkscape:pageopacity="0"
     inkscape:pagecheckerboard="0"
     inkscape:document-units="mm"
     showgrid="false"
     inkscape:zoom="4.187976"
     inkscape:cx="66.619293"
     inkscape:cy="73.663268"
     inkscape:window-width="1282"
     inkscape:window-height="660"
     inkscape:window-x="42"
     inkscape:window-y="66"
     inkscape:window-maximized="1"
     inkscape:current-layer="svg5"
     inkscape:showpageshadow="0"
     inkscape:deskcolor="#505050"
     showguides="true" />
  <defs
     id="defs2" />
  <path
     id="path1"
     style="color:#000000;fill:#ffffff;stroke-linecap:round;-inkscape-stroke:none;paint-order:stroke fill markers"
     d="M 433.58494 38.401668 L 409.70267 43.622893 C 364.53267 53.503832 321.00915 68.366366 279.3461 88.138667 L 259.40876 97.594885 L 259.85353 119.67873 C 260.39937 147.51651 262.28002 175.34151 265.4035 203.16031 C 246.40059 215.02016 228.25558 228.0026 211.10276 242.22281 C 190.29251 229.16611 168.72295 217.41146 146.39825 207.02788 L 124.50778 196.83683 L 107.60649 214.08621 C 73.714976 248.68378 44.3313 286.90882 19.619182 328.56639 L 9.060706 346.37657 L 19.947926 363.97403 C 35.805397 389.58993 52.823774 414.35867 70.845197 438.36681 L 70.845197 668.66149 L 70.845197 704.16582 L 70.845197 706.00292 L 70.845197 745.0074 C 70.845197 830.79756 135.31932 893.93212 218.12241 931.36644 C 300.92549 968.80076 406.38967 986.15062 512 986.15062 C 617.61033 986.15062 723.07451 968.80076 805.87759 931.36644 C 888.68068 893.93212 953.1548 830.79756 953.1548 745.0074 L 953.1548 704.16582 L 953.1548 668.66149 L 953.1548 438.36681 C 971.17622 414.35867 988.19455 389.58994 1004.0521 363.97403 L 1014.9393 346.37657 L 1004.3808 328.56639 C 979.66872 286.90881 950.28502 248.68378 916.39351 214.08621 L 899.49222 196.83683 L 877.60175 207.02788 C 855.27705 217.41146 833.70749 229.16611 812.89724 242.22281 C 795.74442 228.0026 777.59939 215.02016 758.5965 203.16031 C 761.71998 175.34151 763.60063 147.51651 764.14647 119.67873 L 764.59124 97.594885 L 744.6539 88.138667 C 702.99085 68.366366 659.46733 53.503832 614.29733 43.622893 L 590.41506 38.401668 L 577.76809 59.325242 C 564.00841 82.081671 551.46998 105.45353 540.11726 129.42502 C 521.38633 128.03134 502.61368 128.03134 483.88274 129.42502 C 472.53003 105.45353 459.99159 82.081671 446.23191 59.325242 L 433.58494 38.401668 z M 416.99305 77.000054 C 434.32634 105.66667 449.66453 135.32632 462.99784 165.99293 C 495.66445 161.32626 528.33555 161.32626 561.00216 165.99293 C 574.33547 135.32632 589.67366 105.66667 607.00695 77.000054 C 649.67354 86.333369 690.66253 100.33526 729.9958 119.00191 C 729.32913 153.00183 726.67591 187.00924 722.00926 221.00916 C 754.00918 239.00914 783.32995 260.33156 809.99656 284.99817 C 835.9965 266.99821 863.34185 251.34046 892.00846 238.00715 C 924.0084 270.67376 951.67332 306.6759 975.00659 346.00915 C 957.6733 374.00909 939.00409 400.9962 919.00413 426.99614 L 919.00413 672.99317 L 767.00848 686.99379 C 759.00848 687.66046 754.00229 692.32776 752.00229 700.99441 L 747.99935 768.00012 L 615.99906 777.9978 L 607.99318 717.00616 C 606.65985 709.67285 601.67298 704.66663 593.00633 701.99998 L 430.99367 701.99998 C 422.32702 704.66663 417.34015 709.67285 416.00682 717.00616 L 408.00094 777.9978 L 276.00065 768.00012 L 271.99771 700.99441 C 269.99771 692.32776 264.9915 687.66046 256.99152 686.99379 L 104.99587 672.99317 L 104.99587 426.99614 C 84.995918 400.9962 66.326704 374.00909 48.993405 346.00915 C 72.326692 306.6759 99.9916 270.67376 131.99154 238.00715 C 160.65815 251.34046 188.0035 266.99821 214.00344 284.99817 C 240.67005 260.33156 269.99082 239.00914 301.99074 221.00916 C 297.32409 187.00924 294.67087 153.00183 294.0042 119.00191 C 333.33745 100.33526 374.32646 86.333369 416.99305 77.000054 z M 298.99337 436.00759 A 90 90 0 0 0 208.99493 526.00603 A 90 90 0 0 0 298.99337 616.00447 A 90 90 0 0 0 388.99182 526.00603 A 90 90 0 0 0 298.99337 436.00759 z M 725.00663 436.00759 A 90 90 0 0 0 635.00818 526.00603 A 90 90 0 0 0 725.00663 616.00447 A 90 90 0 0 0 815.00507 526.00603 A 90 90 0 0 0 725.00663 436.00759 z M 512 488.49057 C 498.25002 488.49057 484.49318 496.99724 482.9932 513.99722 L 482.9932 599.99272 C 485.99318 633.99264 538.00682 633.99264 541.0068 599.99272 L 541.0068 513.99722 C 539.5068 496.99724 525.74998 488.49057 512 488.49057 z M 104.99587 706.00292 L 239.99354 717.99239 L 245.00204 787.00925 C 246.33537 793.6759 251.00268 798.0043 259.00266 800.0043 L 420.99599 811.00754 C 428.99597 811.00754 434.34109 807.33761 437.00774 800.0043 L 447.00542 734.99038 L 576.99458 734.99038 L 586.99226 800.0043 C 589.65891 807.33761 595.00403 811.00754 603.00401 811.00754 L 764.99734 800.0043 C 772.99732 798.0043 777.66463 793.6759 778.99796 787.00925 L 784.00646 717.99239 L 919.00413 706.00292 L 919.00413 745.0074 C 919.00413 1021.0068 104.99587 1021.0068 104.99587 745.0074 L 104.99587 706.00292 z "
     transform="matrix(0.02672292,0,0,0.02672292,3.2511984,3.1843911)" />
</svg>
